# xmcd
#
# Track frame offsets:
#	182
#	22812
#	43312
#	70565
#	86892
#	100935
#	118245
#	135237
#	152692
#	166912
#	183567
#	198617
#	213542
#	227917
#	245160
#	260970
#
# Disc length: 3675 seconds
#
# Revision: 0
# Processed by: cddbd v1.5.2PL0 Copyright (c) Steve Scherf et al.
# Submitted via: EasyCDDAExtractor 12.1.0.1
#
DISCID=eb0e5910
DTITLE=The Alex Bollard Assembly - Blues ballads
DYEAR=1994
DGENRE=Blues
TTITLE0=Still got the blues
TTITLE1=Tears in heaven
TTITLE2=Layla
TTITLE3=I need your love so bad
TTITLE4=Love hurts
TTITLE5=The joker
TTITLE6=Fade to back
TTITLE7=The bug
TTITLE8=Cocaine
TTITLE9=Lay down Sally
TTITLE10=Black magic woman
TTITLE11=White room
TTITLE12=Samba pa ti
TTITLE13=Water of love
TTITLE14=Knocking on heaven's door
TTITLE15=A salty dog
EXTD=
EXTT0=
EXTT1=
EXTT2=
EXTT3=
EXTT4=
EXTT5=
EXTT6=
EXTT7=
EXTT8=
EXTT9=
EXTT10=
EXTT11=
EXTT12=
EXTT13=
EXTT14=
EXTT15=
PLAYORDER=
